<?xml version="1.0" encoding="UTF-8" standalone="no"?>
<!DOCTYPE svg PUBLIC "-//W3C//DTD SVG 1.1//EN" "http://www.w3.org/Graphics/SVG/1.1/DTD/svg11.dtd">
<svg width="100%" height="100%" viewBox="0 0 16 16" version="1.1" xmlns="http://www.w3.org/2000/svg" xmlns:xlink="http://www.w3.org/1999/xlink" xml:space="preserve" xmlns:serif="http://www.serif.com/" style="fill-rule:evenodd;clip-rule:evenodd;stroke-linejoin:round;stroke-miterlimit:2;">
    <g transform="matrix(0.962035,0,0,0.962035,-0.818831,4.0912)">
        <path d="M1.429,0.126L3.426,0.126C4.182,0.126 4.786,0.316 5.24,0.695C5.694,1.075 5.921,1.597 5.921,2.263C5.921,2.933 5.695,3.468 5.243,3.868C4.791,4.268 4.198,4.468 3.465,4.468L2.344,4.468L2.344,8L1.429,8L1.429,0.126ZM2.344,3.67L3.337,3.67C4.412,3.67 4.95,3.219 4.95,2.319C4.95,1.903 4.804,1.566 4.512,1.309C4.22,1.052 3.843,0.924 3.382,0.924L2.344,0.924L2.344,3.67Z" style="fill:rgb(98,160,233);fill-rule:nonzero;"/>
        <path d="M10.821,0.997C10.353,0.837 9.908,0.757 9.488,0.757C9.012,0.757 8.624,0.866 8.324,1.083C8.025,1.301 7.875,1.61 7.875,2.012C7.875,2.488 8.267,2.907 9.052,3.268C9.633,3.536 10.017,3.722 10.205,3.826C10.393,3.93 10.583,4.073 10.777,4.256C10.97,4.438 11.126,4.653 11.243,4.9C11.36,5.148 11.419,5.426 11.419,5.734C11.419,6.501 11.161,7.095 10.646,7.517C10.13,7.94 9.523,8.151 8.824,8.151C8.147,8.151 7.553,8.017 7.044,7.749L7.233,6.962C7.832,7.234 8.355,7.369 8.801,7.369C9.322,7.369 9.74,7.235 10.054,6.965C10.368,6.695 10.526,6.324 10.526,5.852C10.526,5.502 10.423,5.205 10.219,4.961C10.014,4.718 9.637,4.469 9.086,4.217C8.52,3.956 8.155,3.778 7.989,3.684C7.824,3.589 7.659,3.458 7.496,3.29C7.332,3.123 7.205,2.935 7.116,2.727C7.027,2.518 6.982,2.291 6.982,2.046C6.982,1.395 7.217,0.887 7.685,0.522C8.154,0.158 8.747,-0.025 9.465,-0.025C9.99,-0.025 10.511,0.055 11.028,0.215L10.821,0.997Z" style="fill:rgb(98,160,233);fill-rule:nonzero;"/>
        <path d="M16.905,8L12.575,8L12.575,7.336C13.672,6.112 14.385,5.292 14.712,4.875C15.039,4.458 15.305,4.021 15.51,3.564C15.715,3.106 15.817,2.65 15.817,2.196C15.817,1.757 15.684,1.411 15.418,1.158C15.152,0.906 14.779,0.779 14.299,0.779C13.931,0.779 13.436,0.892 12.815,1.119L12.686,0.333C13.248,0.094 13.836,-0.025 14.45,-0.025C15.153,-0.025 15.719,0.174 16.149,0.57C16.579,0.966 16.794,1.495 16.794,2.157C16.794,2.63 16.683,3.099 16.461,3.564C16.24,4.029 15.956,4.475 15.61,4.903C15.265,5.331 14.591,6.097 13.59,7.202L16.905,7.202L16.905,8Z" style="fill:rgb(98,160,233);fill-rule:nonzero;"/>
    </g>
</svg>
